<svg class="icon-80x80 icon-themed" xmlns="http://www.w3.org/2000/svg" viewBox="0 0 80 80" width="80" height="80">
  <path fill="none" stroke="#2E3B4E" stroke-width="2" stroke-linecap="round" stroke-linejoin="round" stroke-miterlimit="10" d="M6.9,23.6l-1.8-8.6c-1.2-5.9,4-11,9.9-9.9l8.8,1.7"></path>
  <path fill="none" stroke="#2E3B4E" stroke-width="2" stroke-linecap="round" stroke-linejoin="round" stroke-miterlimit="10" d="M23.7,73.2l-8.8,1.7c-5.9,1.2-11-4-9.9-9.9l1.8-8.6"></path>
  <path fill="none" stroke="#2E3B4E" stroke-width="2" stroke-linecap="round" stroke-linejoin="round" stroke-miterlimit="10" d="M73.3,56.1l1.7,8.9c1.2,5.9-4,11-9.9,9.9l-8.8-1.8"></path>
  <path fill="none" stroke="#2E3B4E" stroke-width="2" stroke-linecap="round" stroke-linejoin="round" stroke-miterlimit="10" d="M56.3,6.8l8.8-1.8c5.9-1.2,11,4,9.9,9.9l-1.7,8.9"></path>
  <circle fill="none" stroke="#2E3B4E" stroke-width="2" stroke-linecap="round" stroke-linejoin="round" stroke-miterlimit="10" cx="40" cy="40" r="37"></circle>
  <circle fill="none" stroke="#2E3B4E" stroke-width="2" stroke-linecap="round" stroke-linejoin="round" stroke-miterlimit="10" cx="40" cy="40" r="18"></circle>
  <line fill="none" stroke="#2E3B4E" stroke-width="2" stroke-linecap="round" stroke-linejoin="round" stroke-miterlimit="10" x1="47.8" y1="4.8" x2="44.1" y2="21.5"></line>
  <line fill="none" stroke="#2E3B4E" stroke-width="2" stroke-linecap="round" stroke-linejoin="round" stroke-miterlimit="10" x1="32.2" y1="4.8" x2="35.9" y2="21.5"></line>
  <line fill="none" stroke="#2E3B4E" stroke-width="2" stroke-linecap="round" stroke-linejoin="round" stroke-miterlimit="10" x1="4.8" y1="32.2" x2="21.5" y2="35.9"></line>
  <line fill="none" stroke="#2E3B4E" stroke-width="2" stroke-linecap="round" stroke-linejoin="round" stroke-miterlimit="10" x1="4.8" y1="47.8" x2="21.5" y2="44.1"></line>
  <line fill="none" stroke="#2E3B4E" stroke-width="2" stroke-linecap="round" stroke-linejoin="round" stroke-miterlimit="10" x1="32.2" y1="75.2" x2="35.9" y2="58.5"></line>
  <line fill="none" stroke="#2E3B4E" stroke-width="2" stroke-linecap="round" stroke-linejoin="round" stroke-miterlimit="10" x1="47.8" y1="75.2" x2="44.1" y2="58.5"></line>
  <line fill="none" stroke="#2E3B4E" stroke-width="2" stroke-linecap="round" stroke-linejoin="round" stroke-miterlimit="10" x1="75.2" y1="47.8" x2="58.5" y2="44.1"></line>
  <line fill="none" stroke="#2E3B4E" stroke-width="2" stroke-linecap="round" stroke-linejoin="round" stroke-miterlimit="10" x1="75.2" y1="32.2" x2="58.5" y2="35.9"></line>
</svg>