<svg class="icon-80x80 icon-themed" xmlns="http://www.w3.org/2000/svg" viewBox="0 0 80 80" width="80" height="80">
  <path fill="#2E3B4E" stroke="#2E3B4E" stroke-miterlimit="10" d="M39.7,58.7v-2.3c-4.8-0.1-8.2-2.5-10.2-5.5l0.7-0.5 c1.9,3,5.1,5.1,9.4,5.1v-16c-4.6-1.3-9.2-2.7-9.2-8.2c0-5.2,4.1-8,9.2-8v-2.1h0.9v2.1c3.6,0.2,6.6,2,8.7,4.8l-0.7,0.5 c-2-2.6-4.6-4.2-8-4.5v14.7c4.7,1.4,9.5,2.9,9.5,8.7c0,5.1-3.7,8.7-9.5,8.9v2.3H39.7z M39.7,38.6V24.2c-4.6,0-8.2,2.5-8.2,7.1 C31.4,36,35.4,37.3,39.7,38.6z M40.6,39.8v15.8c5.1-0.3,8.6-3.4,8.6-8C49.2,42.5,45,41.1,40.6,39.8z"></path>
  <circle fill="none" stroke="#2E3B4E" stroke-width="2" stroke-linecap="round" stroke-linejoin="round" stroke-miterlimit="10" cx="40" cy="40" r="39"></circle>
</svg>