<svg class="icon-80x80 icon-themed" xmlns="http://www.w3.org/2000/svg" viewBox="0 0 80 80" width="80" height="80">
  <path fill="none" stroke="#2E3B4E" stroke-width="2" stroke-linejoin="round" stroke-miterlimit="10" d="M61,33V22 c0-11.6-9.4-21-21-21c-11.6,0-21,9.4-21,21v11"></path>
  <path fill="none" stroke="#2E3B4E" stroke-width="2" stroke-linejoin="round" stroke-miterlimit="10" d="M25,33V22 c0-8.3,6.7-15,15-15c8.3,0,15,6.7,15,15v11"></path>
  <path fill="none" stroke="#2E3B4E" stroke-width="2" stroke-linecap="round" stroke-linejoin="round" stroke-miterlimit="10" d="M69,74c0,2.8-2.2,5-5,5H16c-2.8,0-5-2.2-5-5V38c0-2.8,2.2-5,5-5h48c2.8,0,5,2.2,5,5V74z"></path>
  <path fill="none" stroke="#2E3B4E" stroke-width="2" stroke-linecap="round" stroke-linejoin="round" stroke-miterlimit="10" d="M45,53c0-2.8-2.2-5-5-5s-5,2.2-5,5c0,2,2.2,3.9,2.2,3.9c0.4,0.4,0.7,1.1,0.6,1.6L37.2,63c-0.1,0.5,0.3,1,0.8,1h4 c0.5,0,0.9-0.4,0.8-1l-0.7-4.4c-0.1-0.5,0.2-1.3,0.6-1.6C42.8,56.9,45,55,45,53z"></path>
</svg>